<?xml version="1.0" encoding="UTF-8" standalone="no"?><!DOCTYPE svg PUBLIC "-//W3C//DTD SVG 1.1//EN" "http://www.w3.org/Graphics/SVG/1.1/DTD/svg11.dtd"><svg width="100%" height="100%" viewBox="0 0 190 190" version="1.1" xmlns="http://www.w3.org/2000/svg" xmlns:xlink="http://www.w3.org/1999/xlink" xml:space="preserve" xmlns:serif="http://www.serif.com/" style="fill-rule:evenodd;clip-rule:evenodd;stroke-linejoin:round;stroke-miterlimit:2;"><rect id="_190px" serif:id="190px" x="0" y="0" width="190" height="190" style="fill:none;"/><g id="logo"><g><path d="M146.96,63.732c-1.631,10.221 -7.725,18.113 -20.598,21.811c-11.181,3.213 -22.387,-1.366 -26.297,6.1c-3.678,7.024 3.334,9.676 3.677,15.897c0.313,5.7 -3.979,8.689 -9.01,8.689c-28.845,-0 -52.229,-23.503 -52.229,-52.494c0,-28.991 23.387,-52.497 52.232,-52.497c28.845,-0 57.009,22.551 52.228,52.494l-0.003,-0Z" style="fill:#262626;fill-rule:nonzero;"/><circle cx="61.461" cy="54.119" r="8.319" style="fill:#fff;"/><circle cx="80.314" cy="32.31" r="8.319" style="fill:#ffed00;"/><circle cx="109.52" cy="31.94" r="8.319" style="fill:#e6007e;"/><circle cx="130.037" cy="53.934" r="8.319" style="fill:#009fe3;"/></g><text x="5.006px" y="178.76px" style="font-family:'ArialMT', 'Arial', sans-serif;font-size:35.21px;fill:#262626;">Color Mixer</text></g></svg>