<svg xmlns="http://www.w3.org/2000/svg" xmlns:xlink="http://www.w3.org/1999/xlink" xmlns:serif="http://www.serif.com/" width="100%" height="100%" viewBox="0 0 1200 430" xml:space="preserve" style="fill-rule:evenodd;clip-rule:evenodd;stroke-linejoin:round;stroke-miterlimit:2;"><rect id="_288x102.5" serif:id="288x102.5" x="0" y="0" width="1200" height="427.083" style="fill:none;"></rect><g><path d="M1125,375l41.667,-0l-0,-341.667l-1133.33,0l0,341.667l132.078,0l0,-8.333l-123.744,-0c-0,-0 -0,-325 -0,-325c-0,-0 1116.67,-0 1116.67,-0c0,-0 0,325 0,325l-33.333,-0l0,8.333Z" style="fill:#fff;"></path><g><g><g><path d="M230.797,353.829c0,-3 -2.435,-5.435 -5.435,-5.435l-10.869,-0c-3,-0 -5.435,2.435 -5.435,5.435l-0,34.42c-0,3 2.435,5.435 5.435,5.435l10.869,-0c3,-0 5.435,-2.435 5.435,-5.435l0,-34.42Z" style="fill:#fff;"></path><path d="M219.928,363.147c-0,-4.355 -3.536,-7.891 -7.892,-7.891l-116.463,0c-4.356,0 -7.892,3.536 -7.892,7.891l0,15.783c0,4.356 3.536,7.892 7.892,7.892l116.463,-0c4.356,-0 7.892,-3.536 7.892,-7.892l-0,-15.783Z" style="fill:#fff;"></path><path d="M89.493,365.741c-0,-1.999 -1.624,-3.623 -3.623,-3.623l-7.247,0c-2,0 -3.623,1.624 -3.623,3.623l0,10.595c0,2 1.623,3.624 3.623,3.624l7.247,-0c1.999,-0 3.623,-1.624 3.623,-3.624l-0,-10.595Z" style="fill:#fff;"></path><rect x="225.362" y="360.169" width="67.029" height="21.739" style="fill:#fff;"></rect><path d="M343.116,364.698l-67.029,0l-0,12.681l67.029,0l23.551,-6.34l-23.551,-6.341Z" style="fill:#fff;"></path></g><text x="393.019px" y="390.451px" style="font-family:'AvenirNext-DemiBold', 'Avenir Next', sans-serif;font-weight:600;font-size:50px;fill:#fff;">E<tspan x="428.519px 459.069px 494.569px 534.369px 567.769px 604.219px 651.669px 695.669px 714.769px 754.569px 788.269px 805.769px 839.469px 886.919px 917.469px 958.169px 991.569px 1010.67px 1058.12px " y="390.451px 390.451px 390.451px 390.451px 390.451px 390.451px 390.451px 390.451px 390.451px 390.451px 390.451px 390.451px 390.451px 390.451px 390.451px 390.451px 390.451px 390.451px 390.451px ">LECTRONICS SOLUTION</tspan></text></g><g><g><path d="M273.511,228.656l17.675,0l-34.106,-102.887l51.904,0l67.291,172.616l-63.147,-0l-9.02,-25.356l-48.137,-0l17.54,-44.373Z" style="fill:#fff;fill-rule:nonzero;"></path><path d="M668.843,185.447l0,112.938l-58.026,-0l0,-112.938l58.026,-0Zm-58.026,-10.657l0,-0.015l-42.422,-0l-0,-49.006l142.871,0l-0,49.006l-42.423,-0l0,0.015l-58.026,-0Z" style="fill:#fff;fill-rule:nonzero;"></path><path d="M782.444,298.385l-53.38,-0l-0,-172.616l118.734,0l-0,48.274l-54.697,0l-0,-48.274l-10.657,0l0,172.616Zm10.657,-48.274l58.842,0l-0,48.274l-58.842,-0l-0,-48.274Zm-0,-61.196l50.796,0l0,45.105l-50.796,-0l-0,-45.105Z" style="fill:#fff;fill-rule:nonzero;"></path><path d="M935.9,236.095c0.411,0.473 0.834,0.933 1.271,1.381c3.001,3.077 6.501,5.424 10.502,7.039c4,1.616 8.231,2.424 12.694,2.424c6.308,-0 11.732,-1.308 16.271,-3.924c4.539,-2.616 8.116,-5.693 10.732,-9.232l33.697,40.39c-7.386,7.386 -16.464,13.271 -27.235,17.656c-10.77,4.385 -23.003,6.578 -36.697,6.578c-7.338,-0 -14.417,-0.738 -21.235,-2.215l-0,-60.097Zm-10.657,-105.226l0,162.342c-0.952,-0.329 -1.9,-0.675 -2.843,-1.036c-10.847,-4.154 -20.272,-10.039 -28.273,-17.656c-8.001,-7.616 -14.309,-16.694 -18.925,-27.234c-4.616,-10.54 -6.924,-22.272 -6.924,-35.197c-0,-13.078 2.308,-24.926 6.924,-35.543c4.616,-10.617 10.924,-19.695 18.925,-27.234c8.001,-7.54 17.426,-13.348 28.273,-17.425c0.943,-0.355 1.891,-0.694 2.843,-1.017Zm10.657,-2.926c6.818,-1.449 13.897,-2.174 21.235,-2.174c12.617,0 24.542,2.039 35.774,6.117c11.232,4.077 20.618,9.578 28.158,16.502l-33.697,40.62c-3.077,-4 -6.924,-7.039 -11.54,-9.116c-4.616,-2.078 -9.77,-3.116 -15.463,-3.116c-4.616,-0 -8.925,0.808 -12.925,2.423c-4.001,1.616 -7.501,3.962 -10.502,7.04c-0.356,0.365 -0.703,0.739 -1.04,1.123l-0,-59.419Z" style="fill:#fff;fill-rule:nonzero;"></path><path d="M500.485,212.635l62.302,85.75l-71.192,-0l-27.746,-41.399l36.636,-44.351Zm57.934,-86.866l-100.761,121.979l-3.438,-5.13l-0,-65.571l37.132,-51.278l67.067,0Z" style="fill:#fff;fill-rule:nonzero;"></path></g><g><g><g><path d="M443.563,125.769l-55.415,0l0,172.851l55.415,0l-0,-172.851Zm-6.394,6.394l-0,160.063c-0,0 -42.627,0 -42.627,0c0,0.001 0,-160.063 0,-160.063l42.627,0Z" style="fill:#fff;"></path><g><rect x="409.019" y="147.346" width="12.065" height="12.065" style="fill:#fff;"></rect><rect x="409.019" y="195.605" width="12.065" height="12.065" style="fill:#fff;"></rect><rect x="409.019" y="240.848" width="12.065" height="12.065" style="fill:#fff;"></rect><rect x="409.019" y="170.548" width="12.065" height="12.065" style="fill:#fff;"></rect><rect x="409.019" y="218.807" width="12.065" height="12.065" style="fill:#fff;"></rect><rect x="409.019" y="264.05" width="12.065" height="12.065" style="fill:#fff;"></rect></g></g><path d="M178.933,298.407l54.985,-0l37.588,-95.335l-24.505,-77.303l-68.068,172.638Zm9.394,-6.394l58.019,-147.151c0,0 18.379,57.977 18.379,57.977c0,0 -35.159,89.174 -35.159,89.174l-41.239,-0Z" style="fill:#fff;"></path><g><path d="M248.858,209.179l-11.215,-4.447l-4.447,11.216l11.216,4.446l4.446,-11.215Z" style="fill:#fff;"></path><path d="M232.184,251.237l-11.215,-4.447l-4.447,11.216l11.216,4.446l4.446,-11.215Z" style="fill:#fff;"></path><path d="M258.093,185.886l-11.216,-4.446l-4.446,11.215l11.215,4.447l4.447,-11.216Z" style="fill:#fff;"></path><path d="M240.307,230.748l-11.215,-4.447l-4.447,11.216l11.216,4.446l4.446,-11.215Z" style="fill:#fff;"></path><path d="M223.633,272.806l-11.216,-4.447l-4.446,11.216l11.215,4.446l4.447,-11.215Z" style="fill:#fff;"></path></g></g></g></g></g></g></svg>